<?xml version="1.0" encoding="utf-8"?>
<!-- Generated by IcoMoon.io -->
<!DOCTYPE svg PUBLIC "-//W3C//DTD SVG 1.1//EN" "http://www.w3.org/Graphics/SVG/1.1/DTD/svg11.dtd">
<svg version="1.1" xmlns="http://www.w3.org/2000/svg" xmlns:xlink="http://www.w3.org/1999/xlink" width="24" height="24" viewBox="0 0 24 24">
<path fill="#444" d="M14.78 11.715c0.307 0.157 0.307 0.413 0 0.569l-5.267 2.715c-0.306 0.157-0.513 0.105-0.513-0.117v-5.764c0-0.222 0.207-0.274 0.514-0.118l5.266 2.715z"></path>
<path fill="#444" d="M18.4 4h-12.8c-1.989 0-3.6 1.611-3.6 3.6v8.8c0 1.989 1.611 3.6 3.6 3.6h12.8c1.988 0 3.6-1.611 3.6-3.6v-8.8c0-1.989-1.611-3.6-3.6-3.6zM20 16.5c0 0.828-0.672 1.5-1.5 1.5h-13c-0.828 0-1.5-0.672-1.5-1.5v-9c0-0.828 0.672-1.5 1.5-1.5h13c0.828 0 1.5 0.672 1.5 1.5v9z"></path>
</svg>
