<?xml version="1.0" encoding="utf-8"?>
<!-- Generated by IcoMoon.io -->
<!DOCTYPE svg PUBLIC "-//W3C//DTD SVG 1.1//EN" "http://www.w3.org/Graphics/SVG/1.1/DTD/svg11.dtd">
<svg version="1.1" xmlns="http://www.w3.org/2000/svg" xmlns:xlink="http://www.w3.org/1999/xlink" width="24" height="24" viewBox="0 0 24 24">
<path fill="#444" d="M17 4h-3c-1.657 0-3 1.343-3 3v3h-3l4 4 4-4h-3v-3c0-0.553 0.447-1 1-1h3c0.553 0 1 0.447 1 1v10c0 0.553-0.447 1-1 1h-10c-0.553 0-1-0.447-1-1v-10c0-0.553 0.447-1 1-1h1v-2h-1c-1.657 0-3 1.343-3 3v10c0 1.657 1.343 3 3 3h10c1.657 0 3-1.343 3-3v-10c0-1.657-1.343-3-3-3z"></path>
</svg>
