<?xml version="1.0" encoding="utf-8"?>
<!-- Generated by IcoMoon.io -->
<!DOCTYPE svg PUBLIC "-//W3C//DTD SVG 1.1//EN" "http://www.w3.org/Graphics/SVG/1.1/DTD/svg11.dtd">
<svg version="1.1" xmlns="http://www.w3.org/2000/svg" xmlns:xlink="http://www.w3.org/1999/xlink" width="24" height="24" viewBox="0 0 24 24">
<path fill="#444" d="M16.438 8.121c0-2.384-1.933-4.316-4.316-4.316s-4.317 1.932-4.317 4.316c0 0.899 0.276 1.734 0.747 2.426l3.593 7.44 3.855-7.987h-0.010c0.278-0.57 0.448-1.202 0.448-1.879zM12.121 10.404c-1.261 0-2.283-1.022-2.283-2.283s1.022-2.283 2.283-2.283 2.283 1.022 2.283 2.283-1.022 2.283-2.283 2.283z"></path>
<path fill="#444" d="M18 14h-1.764l-0.588 1h1.352l1.042 4h-12.208l0.958-4h2.361l-0.585-1h-2.568l-2 6h16z"></path>
</svg>
