<?xml version="1.0" encoding="utf-8"?>
<!-- Generated by IcoMoon.io -->
<!DOCTYPE svg PUBLIC "-//W3C//DTD SVG 1.1//EN" "http://www.w3.org/Graphics/SVG/1.1/DTD/svg11.dtd">
<svg version="1.1" xmlns="http://www.w3.org/2000/svg" xmlns:xlink="http://www.w3.org/1999/xlink" width="24" height="24" viewBox="0 0 24 24">
<path fill="#444" d="M20.243 14.838l-1.081-1.081-2.162 2.162-2.162-2.162-1.081 1.081 2.162 2.162-2.162 2.162 1.081 1.081 2.162-2.162 2.162 2.162 1.081-1.081-2.162-2.162z"></path>
<path fill="#444" d="M3.877 19.494c0.722 0 1.217-0.070 1.486-0.21 0.43-0.226 0.752-0.729 0.967-1.509l3.469-12.94c-1.169-0.008-2.169 0.281-3.002 0.865s-1.524 1.445-2.073 2.582l-0.61-0.165 0.909-4.117h12.971l-0.852 4.624-0.61-0.059c-0.039-1.569-0.47-2.639-1.294-3.212-0.447-0.313-1.109-0.486-1.987-0.518l-3.281 12.327-0.196 0.832c-0.023 0.11-0.039 0.2-0.046 0.27s-0.012 0.141-0.012 0.211c0 0.414 0.126 0.673 0.38 0.779s0.783 0.186 1.589 0.24v0.624h-7.808v-0.624z"></path>
</svg>
