<?xml version="1.0" encoding="utf-8"?>
<!-- Generated by IcoMoon.io -->
<!DOCTYPE svg PUBLIC "-//W3C//DTD SVG 1.1//EN" "http://www.w3.org/Graphics/SVG/1.1/DTD/svg11.dtd">
<svg version="1.1" xmlns="http://www.w3.org/2000/svg" xmlns:xlink="http://www.w3.org/1999/xlink" width="24" height="24" viewBox="0 0 24 24">
<path fill="#444" d="M22 14v-4h-2.262c-0.189-0.732-0.477-1.422-0.852-2.058l1.599-1.599-2.828-2.828-1.599 1.599c-0.635-0.375-1.326-0.663-2.058-0.852v-2.262h-4v2.262c-0.732 0.189-1.423 0.477-2.059 0.853l-1.599-1.6-2.829 2.829 1.601 1.601c-0.376 0.634-0.663 1.324-0.852 2.055h-2.262v4h2.262c0.189 0.732 0.477 1.423 0.852 2.058l-1.6 1.6 2.828 2.829 1.6-1.6c0.635 0.375 1.325 0.662 2.057 0.852v2.261h4v-2.262c0.731-0.189 1.421-0.477 2.056-0.852l1.599 1.6 2.828-2.828-1.599-1.599c0.376-0.636 0.664-1.327 0.853-2.060h2.264zM12 14c-1.104 0-2-0.896-2-2s0.896-2 2-2 2 0.896 2 2-0.896 2-2 2z"></path>
</svg>
