<?xml version="1.0" encoding="utf-8"?>
<!-- Generated by IcoMoon.io -->
<!DOCTYPE svg PUBLIC "-//W3C//DTD SVG 1.1//EN" "http://www.w3.org/Graphics/SVG/1.1/DTD/svg11.dtd">
<svg version="1.1" xmlns="http://www.w3.org/2000/svg" xmlns:xlink="http://www.w3.org/1999/xlink" width="24" height="24" viewBox="0 0 24 24">
<path fill="#444" d="M10.673 5.194h2.255v5.57h-1.195v-4.51h-1.060v-1.060z"></path>
<path fill="#444" d="M12.422 15.607c0.141-0.2 0.211-0.392 0.211-0.579 0-0.186-0.061-0.341-0.184-0.465-0.122-0.125-0.279-0.188-0.47-0.188-0.35 0-0.682 0.25-0.996 0.75l-0.996-0.591c0.261-0.403 0.546-0.709 0.857-0.915 0.311-0.208 0.707-0.312 1.187-0.312s0.903 0.153 1.267 0.458c0.364 0.306 0.546 0.721 0.546 1.247 0 0.287-0.073 0.562-0.219 0.825-0.147 0.264-0.416 0.6-0.81 1.008l-1.004 1.044h2.2v1.115h-3.928v-0.924l1.633-1.673c0.331-0.335 0.566-0.601 0.706-0.8z"></path>
</svg>
