<?xml version="1.0" encoding="utf-8"?>
<!-- Generated by IcoMoon.io -->
<!DOCTYPE svg PUBLIC "-//W3C//DTD SVG 1.1//EN" "http://www.w3.org/Graphics/SVG/1.1/DTD/svg11.dtd">
<svg version="1.1" xmlns="http://www.w3.org/2000/svg" xmlns:xlink="http://www.w3.org/1999/xlink" width="24" height="24" viewBox="0 0 24 24">
<path fill="#444" d="M2 4v16h20v-16h-20zM21 19h-18v-14h18v14z"></path>
<path fill="#444" d="M20 18v-8c0 0-1.25-3.5-2.375-3.5s-3.312 7.062-4.438 7.062-1.438-2-2.188-2-1.562 3.75-3.438 4.562-3.625 1.862-3.625 1.862l16.064 0.014z"></path>
<path fill="#444" d="M7.914 8.028c0 1.017-0.824 1.841-1.841 1.841s-1.841-0.824-1.841-1.841c0-1.017 0.824-1.841 1.841-1.841s1.841 0.824 1.841 1.841z"></path>
</svg>
