<?xml version="1.0" encoding="utf-8"?>
<!-- Generated by IcoMoon.io -->
<!DOCTYPE svg PUBLIC "-//W3C//DTD SVG 1.1//EN" "http://www.w3.org/Graphics/SVG/1.1/DTD/svg11.dtd">
<svg version="1.1" xmlns="http://www.w3.org/2000/svg" xmlns:xlink="http://www.w3.org/1999/xlink" width="24" height="24" viewBox="0 0 24 24">
<path fill="#444" d="M13.583 4h-7.583v16h12v-12l-4.417-4zM17 19h-10v-14h7v3h3v11z"></path>
<path fill="#444" d="M8 10h1.084v1h-1.084v-1z"></path>
<path fill="#444" d="M10 10h3v1h-3v-1z"></path>
<path fill="#444" d="M14 10h2v1h-2v-1z"></path>
<path fill="#444" d="M8 12h4v1h-4v-1z"></path>
<path fill="#444" d="M13 12h3v1h-3v-1z"></path>
<path fill="#444" d="M8 14h1.084v1h-1.084v-1z"></path>
<path fill="#444" d="M10 14h3v1h-3v-1z"></path>
<path fill="#444" d="M14 14h2v1h-2v-1z"></path>
<path fill="#444" d="M8 16h4v1h-4v-1z"></path>
<path fill="#444" d="M13 16h3v1h-3v-1z"></path>
</svg>
