<?xml version="1.0" encoding="utf-8"?>
<!-- Generator: Adobe Illustrator 16.0.4, SVG Export Plug-In . SVG Version: 6.00 Build 0)  -->
<!DOCTYPE svg PUBLIC "-//W3C//DTD SVG 1.1//EN" "http://www.w3.org/Graphics/SVG/1.1/DTD/svg11.dtd">
<svg version="1.1" id="Layer_1" xmlns="http://www.w3.org/2000/svg" xmlns:xlink="http://www.w3.org/1999/xlink" x="0px" y="0px"
	 width="24px" height="24px" viewBox="0 0 24 24" enable-background="new 0 0 24 24" xml:space="preserve">
<path fill="#444444" d="M17.042,4.417c-1.634,0-2.958,1.324-2.958,2.958c0,0.854,0.367,1.618,0.945,2.158l-2.201,3.935
	c-0.265-0.078-0.539-0.133-0.828-0.133c-0.226,0-0.444,0.031-0.656,0.078L9.058,9.457c0.53-0.534,0.858-1.27,0.858-2.082
	c0-1.634-1.324-2.958-2.958-2.958C5.324,4.417,4,5.741,4,7.375c0,1.634,1.324,2.958,2.958,2.958c0.28,0,0.545-0.051,0.802-0.124
	l2.256,3.902c-0.594,0.541-0.974,1.312-0.974,2.18c0,1.635,1.324,2.959,2.958,2.959s2.958-1.324,2.958-2.959
	c0-0.801-0.322-1.525-0.84-2.059l2.232-3.989c0.223,0.054,0.452,0.09,0.691,0.09c1.634,0,2.958-1.324,2.958-2.958
	C20,5.741,18.676,4.417,17.042,4.417z"/>
</svg>
