<?xml version="1.0" encoding="utf-8"?>
<!-- Generated by IcoMoon.io -->
<!DOCTYPE svg PUBLIC "-//W3C//DTD SVG 1.1//EN" "http://www.w3.org/Graphics/SVG/1.1/DTD/svg11.dtd">
<svg version="1.1" xmlns="http://www.w3.org/2000/svg" xmlns:xlink="http://www.w3.org/1999/xlink" width="24" height="24" viewBox="0 0 24 24">
<path fill="#444" d="M13.95 11.464l-1.415-1.414-3.535 3.535-3.535-3.535-1.415 1.414 3.536 3.536-3.536 3.536 1.415 1.414 3.535-3.535 3.535 3.535 1.415-1.414-3.536-3.536z"></path>
<path fill="#444" d="M18.516 7.092c0.184-0.26 0.275-0.51 0.275-0.753 0-0.242-0.079-0.444-0.238-0.607s-0.363-0.244-0.613-0.244c-0.456 0-0.889 0.325-1.297 0.976l-1.298-0.768c0.339-0.526 0.711-0.924 1.116-1.194 0.404-0.27 0.92-0.405 1.547-0.405 0.626 0 1.176 0.199 1.65 0.597s0.711 0.939 0.711 1.625c0 0.374-0.096 0.732-0.285 1.074-0.19 0.343-0.542 0.78-1.054 1.313l-1.309 1.36h2.865v1.453h-5.116v-1.204l2.128-2.18c0.428-0.436 0.735-0.784 0.918-1.043z"></path>
</svg>
