<?xml version="1.0" encoding="utf-8"?>
<!-- Generated by IcoMoon.io -->
<!DOCTYPE svg PUBLIC "-//W3C//DTD SVG 1.1//EN" "http://www.w3.org/Graphics/SVG/1.1/DTD/svg11.dtd">
<svg version="1.1" xmlns="http://www.w3.org/2000/svg" xmlns:xlink="http://www.w3.org/1999/xlink" width="24" height="24" viewBox="0 0 24 24">
<path fill="#444" d="M12.707 9.879c0.391-0.391 0.391-1.023 0-1.414l-4.242-4.243c-0.392-0.391-1.023-0.391-1.415 0l-2.828 2.828c-0.391 0.392-0.391 1.023 0 1.415l4.243 4.242c0.391 0.391 1.023 0.391 1.414 0l0.707-0.707 1.414 1.414-0.707 0.707c-0.391 0.391-0.391 1.023 0 1.414l4.242 4.243c0.392 0.391 1.023 0.391 1.415 0l2.828-2.828c0.391-0.392 0.391-1.023 0-1.415l-4.243-4.242c-0.391-0.391-1.023-0.391-1.414 0l-0.707 0.707-1.414-1.414 0.707-0.707zM17.657 16.242l-1.415 1.415-2.828-2.829 1.414-1.414 2.829 2.828zM6.343 7.758l1.415-1.415 2.828 2.829-1.414 1.414-2.829-2.828z"></path>
</svg>
