<?xml version="1.0" encoding="utf-8"?>
<!-- Generated by IcoMoon.io -->
<!DOCTYPE svg PUBLIC "-//W3C//DTD SVG 1.1//EN" "http://www.w3.org/Graphics/SVG/1.1/DTD/svg11.dtd">
<svg version="1.1" xmlns="http://www.w3.org/2000/svg" xmlns:xlink="http://www.w3.org/1999/xlink" width="24" height="24" viewBox="0 0 24 24">
<path fill="#444" d="M16 8c0 2.209-1.791 4-4 4s-4-1.791-4-4c0-2.209 1.791-4 4-4s4 1.791 4 4z"></path>
<path fill="#444" d="M16.691 10.573c-0.915 1.662-2.661 2.802-4.691 2.802s-3.776-1.14-4.691-2.802c-2.002 0.546-3.309 1.428-3.309 2.427v7c0 0.76 3.582 1.376 8 1.376s8-0.616 8-1.376v-7c0-0.999-1.307-1.881-3.309-2.427z"></path>
</svg>
