<?xml version="1.0" encoding="utf-8"?>
<!-- Generator: Adobe Illustrator 16.0.4, SVG Export Plug-In . SVG Version: 6.00 Build 0)  -->
<!DOCTYPE svg PUBLIC "-//W3C//DTD SVG 1.1//EN" "http://www.w3.org/Graphics/SVG/1.1/DTD/svg11.dtd">
<svg version="1.1" id="Layer_1" xmlns="http://www.w3.org/2000/svg" xmlns:xlink="http://www.w3.org/1999/xlink" x="0px" y="0px"
	 width="24px" height="24px" viewBox="0 0 24 24" enable-background="new 0 0 24 24" xml:space="preserve">
<g>
	<path fill="#444444" d="M15.371,10.819l-2.427,0.386l3.978,4.046l-1.414,1.414l-4.203-4.273l-1.018,1.815l4.513,4.579
		c0.391,0.391,1.023,0.391,1.414,0l2.827-2.827c0.393-0.392,0.393-1.022,0-1.414L15.371,10.819z"/>
	<path fill="#444444" d="M10.086,11.151l-3.609-3.67l1.415-1.415l3.71,3.774c0.18-0.598,0.418-1.384,0.663-2.173L8.599,3.946
		c-0.392-0.391-1.023-0.391-1.415,0L4.355,6.773c-0.391,0.392-0.391,1.023,0,1.415l3.438,3.488L10.086,11.151z"/>
</g>
<polygon fill="#444444" points="8.604,12.625 4.062,12.792 4.062,14.125 "/>
<polygon fill="#444444" points="9.267,13.72 6.333,18.136 8.604,18.136 "/>
<polygon fill="#444444" points="14.579,9.874 19.121,9.707 19.121,8.374 "/>
<polygon fill="#444444" points="13.346,9.124 16.279,4.708 14.01,4.708 "/>
</svg>
