<?xml version="1.0" encoding="utf-8"?>
<!-- Generated by IcoMoon.io -->
<!DOCTYPE svg PUBLIC "-//W3C//DTD SVG 1.1//EN" "http://www.w3.org/Graphics/SVG/1.1/DTD/svg11.dtd">
<svg version="1.1" xmlns="http://www.w3.org/2000/svg" xmlns:xlink="http://www.w3.org/1999/xlink" width="24" height="24" viewBox="0 0 24 24">
<path fill="#444" d="M4 4h16v1h-16v-1z"></path>
<path fill="#444" d="M4 9h16v1h-16v-1z"></path>
<path fill="#444" d="M4 14h16v1h-16v-1z"></path>
<path fill="#444" d="M4 19h16v1h-16v-1z"></path>
<path fill="#444" d="M7 4.669c0 0.735-0.596 1.331-1.331 1.331h-0.338c-0.735 0-1.331-0.596-1.331-1.331v-0.338c0-0.735 0.596-1.331 1.331-1.331h0.338c0.735 0 1.331 0.596 1.331 1.331v0.338z"></path>
<path fill="#444" d="M15 9.669c0 0.735-0.596 1.331-1.331 1.331h-0.338c-0.735 0-1.331-0.596-1.331-1.331v-0.338c0-0.735 0.596-1.331 1.331-1.331h0.338c0.735 0 1.331 0.596 1.331 1.331v0.338z"></path>
<path fill="#444" d="M11 14.669c0 0.735-0.596 1.331-1.331 1.331h-0.338c-0.735 0-1.331-0.596-1.331-1.331v-0.338c0-0.735 0.596-1.331 1.331-1.331h0.338c0.735 0 1.331 0.596 1.331 1.331v0.338z"></path>
<path fill="#444" d="M19 19.669c0 0.735-0.596 1.331-1.331 1.331h-0.338c-0.735 0-1.331-0.596-1.331-1.331v-0.338c0-0.735 0.596-1.331 1.331-1.331h0.338c0.735 0 1.331 0.596 1.331 1.331v0.338z"></path>
</svg>
