<?xml version="1.0" encoding="utf-8"?>
<!-- Generated by IcoMoon.io -->
<!DOCTYPE svg PUBLIC "-//W3C//DTD SVG 1.1//EN" "http://www.w3.org/Graphics/SVG/1.1/DTD/svg11.dtd">
<svg version="1.1" xmlns="http://www.w3.org/2000/svg" xmlns:xlink="http://www.w3.org/1999/xlink" width="24" height="24" viewBox="0 0 24 24">
<path fill="#444" d="M10.33 7.689h2.275v10.194h-2.275v-4.011h-4.055v4.011h-2.275v-10.194h2.275v4.259h4.055v-4.259z"></path>
<path fill="#444" d="M14.953 9.629v-1.94h6.242v1.575l-2.086 2.377c0.816 0.137 1.448 0.479 1.896 1.028 0.447 0.55 0.671 1.184 0.671 1.903 0 1.069-0.362 1.908-1.086 2.516s-1.651 0.912-2.779 0.912c-1.127 0-2.27-0.398-3.427-1.195l0.934-1.809c0.962 0.681 1.823 1.021 2.581 1.021 0.457 0 0.834-0.111 1.131-0.335 0.296-0.224 0.444-0.547 0.444-0.97s-0.17-0.759-0.511-1.007c-0.34-0.247-0.812-0.371-1.414-0.371-0.321 0-0.773 0.092-1.356 0.276v-1.677l1.954-2.305h-3.194z"></path>
</svg>
