<?xml version="1.0" encoding="utf-8"?>
<!-- Generated by IcoMoon.io -->
<!DOCTYPE svg PUBLIC "-//W3C//DTD SVG 1.1//EN" "http://www.w3.org/Graphics/SVG/1.1/DTD/svg11.dtd">
<svg version="1.1" xmlns="http://www.w3.org/2000/svg" xmlns:xlink="http://www.w3.org/1999/xlink" width="24" height="24" viewBox="0 0 24 24">
<path fill="#444" d="M9.929 11.077c1.034 0.689 1.551 1.653 1.551 2.891 0 1.239-0.368 2.218-1.104 2.938-0.737 0.722-1.661 1.082-2.773 1.082s-2.038-0.345-2.774-1.034c-0.736-0.69-1.104-1.583-1.104-2.68s0.345-2.179 1.034-3.245l3.432-4.983h3.855l-2.117 5.031z"></path>
<path fill="#444" d="M18.045 11.077c1.034 0.689 1.551 1.653 1.551 2.891 0 1.239-0.368 2.218-1.104 2.938-0.737 0.722-1.661 1.082-2.773 1.082s-2.038-0.345-2.774-1.034c-0.736-0.69-1.104-1.583-1.104-2.68s0.345-2.179 1.034-3.245l3.432-4.983h3.855l-2.117 5.031z"></path>
</svg>
