<?xml version="1.0" encoding="utf-8"?>
<!-- Generated by IcoMoon.io -->
<!DOCTYPE svg PUBLIC "-//W3C//DTD SVG 1.1//EN" "http://www.w3.org/Graphics/SVG/1.1/DTD/svg11.dtd">
<svg version="1.1" xmlns="http://www.w3.org/2000/svg" xmlns:xlink="http://www.w3.org/1999/xlink" width="24" height="24" viewBox="0 0 24 24">
<path fill="#444" d="M10.435 7.806h2.275v10.194h-2.275v-4.011h-4.054v4.011h-2.275v-10.194h2.274v4.259h4.054v-4.259z"></path>
<path fill="#444" d="M19.091 11.78c0.258-0.365 0.387-0.717 0.387-1.058s-0.112-0.625-0.336-0.854c-0.224-0.228-0.51-0.343-0.86-0.343-0.642 0-1.249 0.457-1.823 1.371l-1.822-1.079c0.476-0.738 0.998-1.298 1.567-1.677s1.293-0.569 2.173-0.569 1.652 0.28 2.318 0.839c0.666 0.56 1 1.319 1 2.282 0 0.525-0.135 1.028-0.401 1.51-0.268 0.481-0.761 1.096-1.48 1.845l-1.837 1.91h4.023v2.043h-7.19v-1.691l2.99-3.062c0.603-0.614 1.033-1.102 1.291-1.467z"></path>
</svg>
