<?xml version="1.0" encoding="utf-8"?>
<!-- Generated by IcoMoon.io -->
<!DOCTYPE svg PUBLIC "-//W3C//DTD SVG 1.1//EN" "http://www.w3.org/Graphics/SVG/1.1/DTD/svg11.dtd">
<svg version="1.1" xmlns="http://www.w3.org/2000/svg" xmlns:xlink="http://www.w3.org/1999/xlink" width="24" height="24" viewBox="0 0 24 24">
<path fill="#444" d="M12.987 19.932h-6.945v-15.862h6.173c1.074 0 2 0.129 2.78 0.386 0.779 0.257 1.365 0.605 1.759 1.044 0.711 0.817 1.067 1.74 1.067 2.769 0 1.24-0.401 2.164-1.203 2.769-0.272 0.212-0.462 0.344-0.567 0.397-0.106 0.053-0.295 0.14-0.567 0.261 0.983 0.212 1.765 0.654 2.348 1.327s0.874 1.509 0.874 2.508c0 1.104-0.378 2.080-1.135 2.927-0.878 0.983-2.406 1.474-4.584 1.474zM9.583 10.492h1.679c0.983 0 1.713-0.105 2.19-0.317s0.714-0.669 0.714-1.373c0-0.703-0.219-1.168-0.657-1.395-0.439-0.228-1.18-0.341-2.224-0.341h-1.702v3.426zM9.583 16.937h2.427c1.014 0 1.774-0.125 2.281-0.374 0.506-0.25 0.76-0.741 0.76-1.475s-0.269-1.218-0.806-1.453-1.396-0.352-2.576-0.352h-2.086v3.654z"></path>
</svg>
