<?xml version="1.0" encoding="utf-8"?>
<!-- Generated by IcoMoon.io -->
<!DOCTYPE svg PUBLIC "-//W3C//DTD SVG 1.1//EN" "http://www.w3.org/Graphics/SVG/1.1/DTD/svg11.dtd">
<svg version="1.1" xmlns="http://www.w3.org/2000/svg" xmlns:xlink="http://www.w3.org/1999/xlink" width="24" height="24" viewBox="0 0 24 24">
<path fill="#444" d="M8 6h4v2h-4v-2z"></path>
<path fill="#444" d="M14 6h4v2h-4v-2z"></path>
<path fill="#444" d="M12 18h4v2h-4v-2z"></path>
<path fill="#444" d="M6 18h4v2h-4v-2z"></path>
<path fill="#444" d="M22 9c0-1.305-0.837-2.403-2-2.816v3.816h2v-1z"></path>
<path fill="#444" d="M18 18v2h1c1.304 0 2.403-0.837 2.816-2h-3.816z"></path>
<path fill="#444" d="M20 12h2v4h-2v-4z"></path>
<path fill="#444" d="M4 19.816v-2.816h-2c0 1.305 0.837 2.403 2 2.816z"></path>
<path fill="#444" d="M2 10h2v4h-2v-4z"></path>
<path fill="#444" d="M5 6c-1.304 0-2.403 0.837-2.816 2h3.816v-2h-1z"></path>
</svg>
