<?xml version="1.0" encoding="utf-8"?>
<!-- Generator: Adobe Illustrator 14.0.0, SVG Export Plug-In . SVG Version: 6.00 Build 43363)  -->
<!DOCTYPE svg PUBLIC "-//W3C//DTD SVG 1.1//EN" "http://www.w3.org/Graphics/SVG/1.1/DTD/svg11.dtd">
<svg version="1.1" id="Layer_1" xmlns="http://www.w3.org/2000/svg" xmlns:xlink="http://www.w3.org/1999/xlink" x="0px" y="0px"
	 width="24px" height="24px" viewBox="0 0 24 24" enable-background="new 0 0 24 24" xml:space="preserve">
<path fill="#444444" d="M14.507,8.186c0.391-0.391,0.391-1.023,0-1.414l-4.242-4.243c-0.392-0.391-1.023-0.391-1.415,0L6.022,5.356
	c-0.391,0.392-0.391,1.023,0,1.415l4.243,4.242c0.391,0.391,1.023,0.391,1.414,0l0.707-0.707l1.414,1.414l-0.707,0.707
	c-0.391,0.391-0.391,1.023,0,1.414l4.242,4.242c0.392,0.392,1.023,0.392,1.415,0l2.827-2.827c0.392-0.392,0.392-1.023,0-1.415
	L17.335,9.6c-0.391-0.391-1.023-0.391-1.414,0l-0.707,0.707L13.8,8.893L14.507,8.186z M19.457,14.549l-1.415,1.415l-2.828-2.829
	l1.414-1.414L19.457,14.549z M8.143,6.064l1.415-1.415l2.828,2.829l-1.414,1.414L8.143,6.064z"/>
<path fill="#444444" d="M10.742,15.005l-1.081-1.081l-2.162,2.162l-2.162-2.162l-1.081,1.081l2.162,2.162l-2.162,2.162l1.081,1.081
	l2.162-2.162l2.162,2.162l1.081-1.081L8.58,17.167L10.742,15.005z"/>
</svg>
