<?xml version="1.0" encoding="utf-8"?>
<!-- Generated by IcoMoon.io -->
<!DOCTYPE svg PUBLIC "-//W3C//DTD SVG 1.1//EN" "http://www.w3.org/Graphics/SVG/1.1/DTD/svg11.dtd">
<svg version="1.1" xmlns="http://www.w3.org/2000/svg" xmlns:xlink="http://www.w3.org/1999/xlink" width="24" height="24" viewBox="0 0 24 24">
<path fill="#444" d="M4 10h16v2h-16v-2z"></path>
<path fill="#444" d="M17.678 13.87c0 1.378-0.507 2.484-1.521 3.316s-2.302 1.249-3.862 1.249c-1.040 0-2.124-0.187-3.251-0.559s-2.143-0.924-3.044-1.652l1.717-2.445c1.456 1.127 3.008 1.69 4.655 1.69 0.503 0 0.901-0.1 1.196-0.299s0.442-0.463 0.442-0.793c0-0.329-0.204-0.633-0.611-0.911s-0.997-0.537-1.769-0.78c-0.771-0.242-1.361-0.451-1.769-0.624s-0.871-0.425-1.392-0.754c-1.058-0.659-1.586-1.634-1.586-2.926s0.52-2.345 1.561-3.16c1.041-0.815 2.385-1.222 4.033-1.222 1.646 0 3.294 0.555 4.941 1.665l-1.457 2.601c-1.214-0.832-2.423-1.248-3.628-1.248s-1.808 0.329-1.808 0.988c0 0.364 0.19 0.65 0.572 0.858s1.015 0.451 1.898 0.729c0.885 0.277 1.513 0.49 1.886 0.637s0.819 0.377 1.34 0.689c0.971 0.589 1.457 1.573 1.457 2.951z"></path>
</svg>
